# xmcd
#
# Track frame offsets:
#	183
#	24365
#	44275
#	65178
#	84283
#	106980
#	128553
#	144953
#	165160
#	183853
#	213838
#	235668
#	255963
#	276963
#
# Disc length: 4033 seconds
# Revision: 2
# Processed by: cddbd v1.5.2PL0 Copyright (c) Steve Scherf et al.
# Submitted via: dBpowerAMP V12.0
#
DISCID=aa0fbf0e
DTITLE=Various Artist - Alligator Blues Sampler [dBP]
DYEAR=1990
DGENRE=Blues
TTITLE0=Lonnie Mack - Stop
TTITLE1=Tinsley Ellis - Born in Georgia
TTITLE2=Clarence 'Gatemouth' Brown - I Hate These Doggone Blues
TTITLE3=Paladins - You and I
TTITLE4=Lil' Ed and The Blues Imperials - S.D. Jones
TTITLE5=Koko Taylor - I'd Rather Go Blind
TTITLE6=Katie Webster - I'm Still Leaving You
TTITLE7=Kenny Neal - Our Love Is Running Out
TTITLE8=Albert Collins - I Ain't Drunk
TTITLE9=Roy Buchanan - When a Guitar Plays the Blues
TTITLE10=Little Charlie and the Nightcats - I Beg Your Pardon
TTITLE11=Delbert McClinton - I've Got Dreams to Remember
TTITLE12=Kinsey Report, The - Midnight Drive
TTITLE13=Lonnie Brooks - Cold Lonely Nights
EXTD=
EXTT0=
EXTT1=
EXTT2=
EXTT3=
EXTT4=
EXTT5=
EXTT6=
EXTT7=
EXTT8=
EXTT9=
EXTT10=
EXTT11=
EXTT12=
EXTT13=
PLAYORDER=
